<?xml version="1.0" encoding="UTF-8"?>
<svg xmlns="http://www.w3.org/2000/svg"
     width="1200" height="220" viewBox="0 0 1200 220"
     preserveAspectRatio="xMidYMid meet"
     role="img" aria-labelledby="title desc"
     style="overflow:visible;">
  <title id="title">Compiler Construction Labs - Banner</title>
  <desc id="desc">Banner for Compiler Construction Labs repository: C# &amp; .NET 8 — includes code, parser and evaluator icons.</desc>

  <defs>
    <linearGradient id="bgGrad" x1="0" x2="1" y1="0" y2="1">
      <stop offset="0" stop-color="#0f172a"/>
      <stop offset="1" stop-color="#0b1220"/>
    </linearGradient>
    <linearGradient id="accent" x1="0" x2="1">
      <stop offset="0" stop-color="#0063b1"/>
      <stop offset="1" stop-color="#7c3aed"/>
    </linearGradient>
    <style>
      .title { font: 36px "Segoe UI", Roboto, Arial, sans-serif; fill: #ffffff; font-weight:700; }
      .subtitle { font: 15px "Segoe UI", Roboto, Arial, sans-serif; fill: #dbeafe; }
      .pill { font: 14px "Segoe UI", Roboto, Arial, sans-serif; fill: #0b1220; font-weight:600; }
      .meta { font: 12px "Segoe UI", Roboto, Arial, sans-serif; fill: #b6c7ff; }
      .icon-accent { fill: url(#accent); }
      .icon-white { fill: #ffffff; opacity: 0.95; }
    </style>
  </defs>

  <!-- Subtle shadow rectangle (no filters) to avoid clipping issues -->
  <rect x="22" y="26" rx="18" ry="18" width="1164" height="184" fill="#000000" opacity="0.06"/>

  <!-- Main rounded panel -->
  <rect x="18" y="20" rx="16" ry="16" width="1164" height="184" fill="url(#bgGrad)"/>

  <!-- Left accent stripe -->
  <rect x="32" y="32" rx="12" ry="12" width="220" height="160" fill="#ffffff" fill-opacity="0.03"/>

  <!-- Title and subtitle -->
  <g transform="translate(70,60)">
    <text class="title">Compiler Construction Labs</text>
    <text class="subtitle" transform="translate(0,44)">Practical labs and examples — C# · .NET 8 · Lexer · Parser · Evaluator</text>

    <!-- Pills -->
    <g transform="translate(0,84)">
      <rect x="0" y="0" rx="12" ry="12" width="110" height="30" fill="#e6eefc"/>
      <text class="pill" x="14" y="20">C#</text>

      <rect x="132" y="0" rx="12" ry="12" width="130" height="30" fill="url(#accent)"/>
      <text class="pill" x="148" y="20" fill="#ffffff">.NET 8</text>

      <rect x="278" y="0" rx="12" ry="12" width="150" height="30" fill="#1f2937"/>
      <text class="meta" x="294" y="20">Educational • Labs</text>
    </g>
  </g>

  <!-- Right icons group (kept inside viewBox) -->
  <g transform="translate(820,46)">
    <!-- Code bracket icon -->
    <g transform="translate(0,0)">
      <rect x="0" y="0" rx="12" ry="12" width="110" height="110" fill="#071029"/>
      <g transform="translate(18,26)">
        <path class="icon-accent" d="M14 0 L11 3 L21 13 L11 23 L14 26 L28 13 Z" />
        <path class="icon-white" d="M36 0 L33 3 L43 13 L33 23 L36 26 L50 13 Z" opacity="0.95"/>
      </g>
    </g>

    <!-- Gear icon -->
    <g transform="translate(132,0)">
      <rect x="0" y="0" rx="12" ry="12" width="110" height="110" fill="#071029"/>
      <g transform="translate(15,20)">
        <circle cx="40" cy="36" r="14" fill="url(#accent)"/>
        <g stroke="#ffffff" stroke-width="2" stroke-linecap="round" transform="translate(0,0)">
          <line x1="40" y1="18" x2="40" y2="6"/>
          <line x1="40" y1="54" x2="40" y2="66"/>
          <line x1="26" y1="36" x2="14" y2="36"/>
          <line x1="54" y1="36" x2="66" y2="36"/>
        </g>
      </g>
    </g>

    <!-- Book / docs icon -->
    <g transform="translate(264,0)">
      <rect x="0" y="0" rx="12" ry="12" width="110" height="110" fill="#071029"/>
      <g transform="translate(16,22)">
        <rect x="2" y="2" width="68" height="84" rx="4" fill="#0b1220" stroke="#2b6cb0" stroke-width="2"/>
        <line x1="12" y1="18" x2="56" y2="18" stroke="#7fb3ff" stroke-width="2" stroke-linecap="round"/>
        <line x1="12" y1="30" x2="56" y2="30" stroke="#7fb3ff" stroke-width="2" stroke-linecap="round"/>
        <rect x="74" y="8" width="10" height="68" rx="2" fill="url(#accent)"/>
      </g>
    </g>
  </g>

  <!-- Footer text -->
  <text x="40" y="204" class="meta">GitHub: ZainulabdeenOfficial/Compiler_Construction_Labs • Educational examples for Compiler Construction</text>
</svg>
