<?xml version="1.0" encoding="UTF-8"?>
<svg xmlns="http://www.w3.org/2000/svg" width="1200" height="220" viewBox="0 0 1200 220" role="img" aria-labelledby="title desc">
  <title id="title">Compiler Construction Labs - Banner</title>
  <desc id="desc">Banner for Compiler Construction Labs repository: C# & .NET 8 — includes code, parser and evaluator icons.</desc>

  <!-- Background -->
  <defs>
    <linearGradient id="bgGrad" x1="0" x2="1" y1="0" y2="1">
      <stop offset="0" stop-color="#0f172a" />
      <stop offset="1" stop-color="#0b1220" />
    </linearGradient>

    <linearGradient id="accent" x1="0" x2="1">
      <stop offset="0" stop-color="#0063b1"/>
      <stop offset="1" stop-color="#7c3aed"/>
    </linearGradient>

    <filter id="softShadow" x="-50%" y="-50%" width="200%" height="200%">
      <feDropShadow dx="0" dy="6" stdDeviation="12" flood-color="#000" flood-opacity="0.35"/>
    </filter>

    <style>
      .title { font: 38px 'Segoe UI', Roboto, Arial, sans-serif; fill: #ffffff; font-weight: 700; letter-spacing: 0.2px; }
      .subtitle { font: 16px 'Segoe UI', Roboto, Arial, sans-serif; fill: #dbeafe; }
      .pill { font: 14px 'Segoe UI', Roboto, Arial, sans-serif; fill: #0b1220; font-weight:600; }
      .meta { font: 13px 'Segoe UI', Roboto, Arial, sans-serif; fill: #b6c7ff; }
      .icon-accent { fill: url(#accent); }
      .icon-white { fill: #ffffff; opacity: 0.95; }
    </style>
  </defs>

  <!-- Rounded panel -->
  <rect x="18" y="18" rx="16" ry="16" width="1164" height="184" fill="url(#bgGrad)" filter="url(#softShadow)"/>

  <!-- Left accent stripe -->
  <rect x="32" y="32" rx="12" ry="12" width="220" height="160" fill="rgba(255,255,255,0.03)" />

  <!-- Title and subtitle -->
  <g transform="translate(70,64)">
    <text class="title">Compiler Construction Labs</text>
    <text class="subtitle" transform="translate(0,44)">Practical labs and examples — C# · .NET 8 · Lexer · Parser · Evaluator</text>

    <!-- Pills -->
    <g transform="translate(0,76)">
      <rect x="0" y="0" rx="12" ry="12" width="120" height="32" fill="#e6eefc"/>
      <text class="pill" x="16" y="22">C#</text>

      <rect x="140" y="0" rx="12" ry="12" width="160" height="32" fill="url(#accent)"/>
      <text class="pill" x="164" y="22" fill="#ffffff">.NET 8</text>

      <rect x="320" y="0" rx="12" ry="12" width="160" height="32" fill="#1f2937"/>
      <text class="meta" x="336" y="22">Educational • Labs</text>
    </g>
  </g>

  <!-- Right icons group -->
  <g transform="translate(820,44)">
    <!-- Code bracket icon -->
    <g transform="translate(0,0)">
      <rect x="0" y="0" rx="12" ry="12" width="128" height="128" fill="#071029"/>
      <g transform="translate(22,32)">
        <path class="icon-accent" d="M18 0 L14 4 L26 16 L14 28 L18 32 L34 16 Z" opacity="0.95"/>
        <path class="icon-white" d="M44 0 L40 4 L52 16 L40 28 L44 32 L60 16 Z" opacity="0.92"/>
      </g>
    </g>

    <!-- Gear icon -->
    <g transform="translate(148,0)">
      <rect x="0" y="0" rx="12" ry="12" width="128" height="128" fill="#071029"/>
      <g transform="translate(34,28)">
        <circle cx="30" cy="30" r="12" fill="url(#accent)"/>
        <path class="icon-white" d="M30 14 L30 6 M30 54 L30 46 M14 30 L6 30 M54 30 L46 30 M18 18 L12 12 M42 42 L48 48 M18 42 L12 48 M42 18 L48 12" stroke="#ffffff" stroke-width="2" stroke-linecap="round"/>
      </g>
    </g>

    <!-- Book / docs icon -->
    <g transform="translate(296,0)">
      <rect x="0" y="0" rx="12" ry="12" width="128" height="128" fill="#071029"/>
      <g transform="translate(26,28)">
        <rect x="2" y="2" width="68" height="84" rx="4" fill="#0b1220" stroke="#2b6cb0" stroke-width="2"/>
        <line x1="12" y1="18" x2="56" y2="18" stroke="#7fb3ff" stroke-width="2" stroke-linecap="round"/>
        <line x1="12" y1="30" x2="56" y2="30" stroke="#7fb3ff" stroke-width="2" stroke-linecap="round"/>
        <rect x="74" y="8" width="10" height="68" rx="2" fill="url(#accent)"/>
      </g>
    </g>
  </g>

  <!-- Small footer text -->
  <text x="40" y="206" class="meta">GitHub: ZainulabdeenOfficial/Compiler_Construction_Labs • Educational examples for Compiler Construction</text>
</svg>
